# xmcd
#
# Track frame offsets:
# 150
# 12599
# 22717
# 32025
# 41912
# 67315
# 77335
# 89321
# 98497
# 109601
#
# Disc length: 1576 seconds
#
#
# Revision: 0
# Processed by: cddbd v1.4PL0 Copyright (c) Steve Scherf et al.
# Submitted via: FreeRIP 2.00 
#
DISCID=7006260a
DTITLE=Jim Reeves - I Love You Because
DYEAR=1975
DGENRE=Country
TTITLE0=I Love You Because (1963)
TTITLE1=(Now And Then) There's A Fool Such As I (1959)
TTITLE2=I Know One (1960)
TTITLE3=When Two Worlds Collide (1962)
TTITLE4=The Shifting Whispering Sands (1961)
TTITLE5=I Won't Come In While He's There (1967)
TTITLE6=Take Me In Your Arms And Hold Me (1980)
TTITLE7=You're Free To Go (1960)
TTITLE8=Someday You'll Want Me To Want You (1959)
TTITLE9=From A Jack To A King (1963)
EXTD=RCA Victor APL 1\n1224
EXTT0=
EXTT1=
EXTT2=
EXTT3=
EXTT4=
EXTT5=
EXTT6=
EXTT7=
EXTT8=
EXTT9=
PLAYORDER=
